<?xml version="1.0" encoding="UTF-8" standalone="no"?>
<!-- Created with Inkscape (http://www.inkscape.org/) -->

<svg
   width="512"
   height="512"
   viewBox="0 0 135.46667 135.46667"
   version="1.1"
   id="svg1"
   inkscape:version="1.4.2 (ebf0e940d0, 2025-05-08)"
   sodipodi:docname="STUPA-Logo-Icon-only.svg"
   xmlns:inkscape="http://www.inkscape.org/namespaces/inkscape"
   xmlns:sodipodi="http://sodipodi.sourceforge.net/DTD/sodipodi-0.dtd"
   xmlns="http://www.w3.org/2000/svg"
   xmlns:svg="http://www.w3.org/2000/svg">
  <sodipodi:namedview
     id="namedview1"
     pagecolor="#505050"
     bordercolor="#ffffff"
     borderopacity="1"
     inkscape:showpageshadow="0"
     inkscape:pageopacity="0"
     inkscape:pagecheckerboard="1"
     inkscape:deskcolor="#505050"
     inkscape:document-units="mm"
     inkscape:zoom="0.73673541"
     inkscape:cx="397.02177"
     inkscape:cy="561.25984"
     inkscape:window-width="1920"
     inkscape:window-height="1008"
     inkscape:window-x="0"
     inkscape:window-y="0"
     inkscape:window-maximized="1"
     inkscape:current-layer="layer1" />
  <defs
     id="defs1" />
  <g
     inkscape:label="Layer 1"
     inkscape:groupmode="layer"
     id="layer1">
    <g
       id="NEUE_x5F_LOGO"
       transform="matrix(3.4672184,0,0,3.4672184,-52.405784,-40.443881)"
       style="stroke-width:0.0763093">
	<path
   class="st3"
   d="m 24.5,22.2 c -3,3.3 -4,7.7 -3.1,11.8 l -4.8,1.3 c -1.3,-5.8 0.2,-12 4.4,-16.6 z"
   id="path8"
   style="fill:#29235c;stroke-width:0.0763093" />

	<path
   class="st4"
   d="m 38.6,13.1 -1.3,4.8 C 33.2,17 28.8,18.1 25.5,21.1 L 22,17.6 c 4.6,-4.3 10.9,-5.8 16.6,-4.5 z"
   id="path9"
   style="fill:#f18700;stroke-width:0.0763093" />

	<path
   class="st5"
   d="m 47.7,18.1 c 2.2,2.2 3.7,4.8 4.6,7.5 l -4.8,1.3 c -0.6,-2 -1.7,-3.8 -3.3,-5.3 -1.6,-1.6 -3.4,-2.7 -5.4,-3.3 v 0 l 1.3,-4.8 c 2.8,0.8 5.4,2.4 7.6,4.6 z"
   id="path10"
   style="fill:#008b92;stroke-width:0.0763093" />

	<path
   class="st6"
   d="m 52.7,27.1 c 1.3,5.7 -0.2,12 -4.4,16.6 l -3.5,-3.5 c 3,-3.3 4,-7.7 3.1,-11.8 z"
   id="path11"
   style="fill:#ce1625;stroke-width:0.0763093" />

	<path
   class="st7"
   d="m 47.2,44.8 c -4.6,4.3 -10.9,5.8 -16.6,4.5 l 1.3,-4.8 c 4.1,0.8 8.5,-0.2 11.8,-3.2 z"
   id="path12"
   style="fill:#0075bf;stroke-width:0.0763093" />

	<path
   class="st8"
   d="m 30.4,44.1 v 0 l -1.3,4.8 C 26.3,48 23.7,46.5 21.5,44.3 19.3,42.1 17.8,39.5 16.9,36.8 l 4.8,-1.3 c 0.6,2 1.7,3.8 3.3,5.3 1.6,1.5 3.4,2.6 5.4,3.3 z"
   id="path13"
   style="fill:#ffcc00;stroke-width:0.0763093" />

	<path
   class="st3"
   d="m 29.1,26.7 c -1.3,1.6 -1.8,3.6 -1.5,5.6 l -4.9,1.3 C 22,30 22.9,26.1 25.5,23.1 Z"
   id="path14"
   style="fill:#29235c;stroke-width:0.0763093" />

	<path
   class="st8"
   d="m 32.1,37.8 -1.3,4.9 C 29.1,42.1 27.4,41.2 26,39.8 24.6,38.4 23.7,36.8 23.1,35.1 L 28,33.8 c 0.3,0.9 0.9,1.7 1.6,2.5 0.7,0.6 1.6,1.2 2.5,1.5 z"
   id="path15"
   style="fill:#ffcc00;stroke-width:0.0763093" />

	<path
   class="st7"
   d="m 42.7,40.3 c -2.9,2.6 -6.8,3.6 -10.4,2.8 l 1.3,-4.9 v 0 c 1.9,0.3 3.9,-0.2 5.5,-1.5 z"
   id="path16"
   style="fill:#0075bf;stroke-width:0.0763093" />

	<path
   class="st6"
   d="m 46.5,28.7 c 0.7,3.6 -0.2,7.5 -2.8,10.5 L 40.1,35.6 C 41.4,34 41.9,32 41.6,30 Z"
   id="path17"
   style="fill:#ce1625;stroke-width:0.0763093" />

	<path
   class="st5"
   d="m 43.2,22.6 c 1.4,1.4 2.3,3 2.9,4.7 l -4.9,1.3 C 40.9,27.7 40.3,26.9 39.6,26.1 38.9,25.4 38,24.8 37.1,24.5 l 1.3,-4.9 c 1.8,0.6 3.4,1.6 4.8,3 z"
   id="path18"
   style="fill:#008b92;stroke-width:0.0763093" />

	<path
   class="st4"
   d="m 37,19.3 -1.3,4.9 c -1.9,-0.3 -4,0.2 -5.6,1.5 l -3.6,-3.6 c 3,-2.6 6.9,-3.6 10.5,-2.8 z"
   id="path19"
   style="fill:#f18700;stroke-width:0.0763093" />

</g>
  </g>
</svg>
