<?xml version="1.0" encoding="UTF-8" standalone="no"?>
<!-- Created with Inkscape (http://www.inkscape.org/) -->

<svg
   width="1000"
   height="270"
   viewBox="0 0 264.58332 71.437526"
   version="1.1"
   id="svg1"
   sodipodi:docname="StuPa_Logo_black_text.svg"
   inkscape:version="1.4.2 (ebf0e940d0, 2025-05-08)"
   xmlns:inkscape="http://www.inkscape.org/namespaces/inkscape"
   xmlns:sodipodi="http://sodipodi.sourceforge.net/DTD/sodipodi-0.dtd"
   xmlns="http://www.w3.org/2000/svg"
   xmlns:svg="http://www.w3.org/2000/svg">
  <sodipodi:namedview
     id="namedview1"
     pagecolor="#505050"
     bordercolor="#eeeeee"
     borderopacity="1"
     inkscape:showpageshadow="0"
     inkscape:pageopacity="0"
     inkscape:pagecheckerboard="true"
     inkscape:deskcolor="#505050"
     inkscape:document-units="mm"
     labelstyle="default"
     inkscape:clip-to-page="false"
     inkscape:zoom="0.31766772"
     inkscape:cx="706.71329"
     inkscape:cy="763.37627"
     inkscape:window-width="1920"
     inkscape:window-height="1008"
     inkscape:window-x="0"
     inkscape:window-y="0"
     inkscape:window-maximized="1"
     inkscape:current-layer="layer1" />
  <defs
     id="defs1">
    <clipPath
       clipPathUnits="userSpaceOnUse"
       id="clipPath155">
      <path
         d="m 58.961,783.842 h 113.386 v 29.701 H 58.961 Z"
         transform="translate(-95.530005,-786.38042)"
         id="path155" />
    </clipPath>
    <clipPath
       clipPathUnits="userSpaceOnUse"
       id="clipPath156">
      <path
         d="m 58.961,783.842 h 113.386 v 29.701 H 58.961 Z"
         transform="translate(-100.9589,-793.67932)"
         id="path156" />
    </clipPath>
    <clipPath
       clipPathUnits="userSpaceOnUse"
       id="clipPath157">
      <path
         d="m 58.961,783.842 h 113.386 v 29.701 H 58.961 Z"
         transform="translate(-84.798705,-783.84222)"
         id="path157" />
    </clipPath>
  </defs>
  <g
     inkscape:label="Ebene 1"
     inkscape:groupmode="layer"
     id="layer1"
     transform="translate(0,-43.656246)">
    <path
       d="M 0,0 C -0.1,-0.15 -0.441,-0.482 -0.607,-0.582 -0.74,-0.657 -0.923,-0.724 -1.081,-0.724 H -2.47 c -0.441,0 -0.798,0.366 -1.031,0.674 -0.067,0.092 -0.125,0.216 -0.225,0.433 l 0.657,0.174 c 0.033,-0.066 0.075,-0.149 0.075,-0.149 0.108,-0.192 0.349,-0.4 0.474,-0.466 0.033,-0.017 0.058,-0.017 0.075,-0.017 h 1.331 c 0.024,0 0.049,0.008 0.066,0.017 0.133,0.066 0.482,0.366 0.482,0.507 v 0.507 c 0,0.133 -0.091,0.258 -0.191,0.283 l -2.262,0.582 c -0.382,0.1 -0.59,0.483 -0.59,0.849 v 0.507 c 0,0.141 0.025,0.308 0.116,0.441 0.1,0.149 0.441,0.49 0.607,0.59 0.133,0.075 0.316,0.141 0.474,0.141 h 1.223 c 0.432,0 0.79,-0.365 1.023,-0.673 C -0.1,3.593 -0.033,3.468 0.066,3.252 L -0.599,3.06 c -0.066,0.134 -0.083,0.167 -0.083,0.167 -0.091,0.183 -0.349,0.399 -0.474,0.466 0,0 -0.025,0.008 -0.058,0.008 H -2.37 C -2.403,3.701 -2.42,3.693 -2.445,3.684 -2.57,3.626 -2.927,3.302 -2.927,3.177 V 2.703 c 0,-0.125 0.083,-0.241 0.183,-0.266 L -0.491,1.838 C -0.116,1.738 0.116,1.372 0.116,1.006 V 0.441 C 0.116,0.299 0.091,0.133 0,0 M 2.087,2.295 V 0.391 C 2.087,0.333 2.096,0.299 2.104,0.283 2.162,0.166 2.32,0.008 2.437,-0.05 2.453,-0.058 2.503,-0.075 2.553,-0.075 h 0.582 v -0.607 h -0.59 c -0.2,0 -0.416,0.058 -0.566,0.166 C 1.854,-0.424 1.647,-0.2 1.58,-0.108 1.48,0.033 1.439,0.2 1.439,0.374 V 2.295 H 0.848 V 2.902 H 1.439 V 4.308 H 2.087 V 2.902 H 3.185 V 2.295 Z M 6.478,-0.682 6.445,-0.391 C 6.279,-0.541 6.029,-0.715 5.796,-0.715 H 5.173 c -0.2,0 -0.424,0.058 -0.574,0.166 C 4.474,-0.457 4.266,-0.241 4.2,-0.15 4.1,-0.008 4.067,0.158 4.067,0.324 V 2.902 H 4.715 V 0.341 c 0,-0.017 0,-0.075 0.009,-0.091 0.066,-0.117 0.241,-0.283 0.357,-0.341 0.033,-0.017 0.05,-0.017 0.1,-0.017 h 0.59 c 0.158,0 0.558,0.316 0.641,0.424 V 2.902 H 7.06 v -2.919 l 0.067,-0.665 z m 4.183,0 -0.033,0.308 c -0.166,-0.158 -0.416,-0.35 -0.665,-0.35 H 9.314 c -0.199,0 -0.416,0.067 -0.565,0.175 -0.125,0.092 -0.333,0.308 -0.4,0.399 C 8.25,-0.008 8.208,0.158 8.208,0.333 v 1.555 c 0,0.175 0.042,0.349 0.141,0.482 0.067,0.092 0.275,0.316 0.4,0.408 0.149,0.108 0.366,0.166 0.565,0.166 h 0.649 c 0.233,0 0.474,-0.166 0.64,-0.316 v 1.68 h 0.649 V -0.017 L 11.31,-0.682 Z M 10.603,1.863 C 10.52,1.988 10.112,2.337 9.938,2.337 H 9.322 c -0.049,0 -0.066,0 -0.099,-0.017 C 9.106,2.262 8.932,2.079 8.873,1.963 8.865,1.946 8.857,1.921 8.857,1.871 V 0.349 c 0,-0.05 0.008,-0.075 0.016,-0.091 0.059,-0.117 0.233,-0.291 0.35,-0.349 0.033,-0.017 0.05,-0.025 0.099,-0.025 h 0.616 c 0.166,0 0.582,0.349 0.665,0.465 z m 1.813,2.52 h 0.749 v -0.74 h -0.749 z m 0.05,-1.481 h 0.649 v -3.584 h -0.649 z m 4.308,-3.459 c -0.15,-0.108 -0.366,-0.167 -0.566,-0.167 h -0.823 c -0.2,0 -0.424,0.059 -0.574,0.167 -0.125,0.091 -0.333,0.307 -0.399,0.399 -0.1,0.133 -0.142,0.299 -0.142,0.474 v 1.588 c 0,0.175 0.042,0.341 0.142,0.474 0.066,0.092 0.274,0.308 0.399,0.4 0.15,0.108 0.374,0.166 0.574,0.166 h 0.832 c 0.199,0 0.424,-0.058 0.573,-0.166 0.125,-0.092 0.333,-0.308 0.4,-0.4 0.099,-0.141 0.133,-0.307 0.133,-0.474 V 0.832 H 14.919 V 0.333 c 0,-0.05 0.009,-0.075 0.017,-0.092 0.05,-0.091 0.199,-0.266 0.341,-0.332 0.033,-0.017 0.066,-0.025 0.108,-0.025 h 0.84 c 0.05,0 0.066,0.008 0.1,0.025 0.116,0.058 0.282,0.224 0.341,0.332 l 0.05,0.092 0.607,-0.2 c -0.108,-0.249 -0.341,-0.549 -0.549,-0.69 m -0.1,2.445 c 0,0.016 0,0.075 -0.008,0.091 -0.059,0.117 -0.242,0.275 -0.358,0.333 -0.033,0.017 -0.05,0.025 -0.1,0.025 H 15.385 C 15.36,2.337 15.31,2.329 15.285,2.312 15.119,2.221 14.994,2.104 14.936,1.979 14.928,1.971 14.919,1.938 14.919,1.888 V 1.422 h 1.755 z m 3.992,0.008 c -0.092,0.175 -0.291,0.441 -0.491,0.441 h -0.449 c -0.175,0 -0.574,-0.324 -0.657,-0.449 v -2.57 H 18.42 v 2.919 l -0.058,0.665 h 0.64 l 0.042,-0.291 c 0.166,0.158 0.416,0.333 0.657,0.333 h 0.457 c 0.2,0 0.416,-0.05 0.566,-0.158 0.191,-0.133 0.457,-0.466 0.557,-0.707 z m 3.75,-2.453 C 24.267,-0.665 24.05,-0.724 23.851,-0.724 h -0.824 c -0.199,0 -0.424,0.059 -0.573,0.167 -0.125,0.091 -0.333,0.307 -0.4,0.399 -0.099,0.133 -0.141,0.299 -0.141,0.474 v 1.588 c 0,0.175 0.042,0.341 0.141,0.474 0.067,0.092 0.275,0.308 0.4,0.4 0.149,0.108 0.374,0.166 0.573,0.166 h 0.832 c 0.2,0 0.424,-0.058 0.574,-0.166 0.125,-0.092 0.333,-0.308 0.399,-0.4 0.1,-0.141 0.133,-0.307 0.133,-0.474 V 0.832 H 22.562 V 0.333 c 0,-0.05 0.008,-0.075 0.016,-0.092 0.05,-0.091 0.2,-0.266 0.341,-0.332 0.034,-0.017 0.067,-0.025 0.108,-0.025 h 0.84 c 0.05,0 0.067,0.008 0.1,0.025 0.117,0.058 0.283,0.224 0.341,0.332 l 0.05,0.092 0.607,-0.2 c -0.108,-0.249 -0.341,-0.549 -0.549,-0.69 m -0.1,2.445 c 0,0.016 0,0.075 -0.008,0.091 C 24.25,2.096 24.067,2.254 23.95,2.312 23.917,2.329 23.901,2.337 23.851,2.337 H 23.027 C 23.002,2.337 22.953,2.329 22.928,2.312 22.761,2.221 22.637,2.104 22.578,1.979 22.57,1.971 22.562,1.938 22.562,1.888 V 1.422 h 1.754 z m 4.1,-2.57 v 2.57 c 0,0.016 0,0.075 -0.008,0.091 C 28.35,2.096 28.167,2.262 28.05,2.32 28.034,2.329 28,2.337 27.951,2.337 H 27.36 c -0.158,0 -0.557,-0.324 -0.64,-0.433 v -2.586 h -0.649 v 2.919 l -0.067,0.665 h 0.649 l 0.033,-0.291 c 0.167,0.15 0.416,0.333 0.649,0.333 h 0.624 c 0.199,0 0.424,-0.058 0.574,-0.166 0.124,-0.092 0.332,-0.308 0.399,-0.4 0.1,-0.141 0.133,-0.307 0.133,-0.474 v -2.586 z m 4.208,0 -0.033,0.308 c -0.166,-0.158 -0.416,-0.35 -0.665,-0.35 h -0.649 c -0.2,0 -0.416,0.067 -0.566,0.175 -0.124,0.092 -0.332,0.308 -0.399,0.399 -0.1,0.142 -0.141,0.308 -0.141,0.483 v 1.555 c 0,0.175 0.041,0.349 0.141,0.482 0.067,0.092 0.275,0.316 0.399,0.408 0.15,0.108 0.366,0.166 0.566,0.166 h 0.649 c 0.233,0 0.474,-0.166 0.64,-0.316 v 1.68 h 0.649 v -4.325 l 0.058,-0.665 z m -0.058,2.545 c -0.083,0.125 -0.491,0.474 -0.665,0.474 h -0.616 c -0.05,0 -0.066,0 -0.099,-0.017 C 31.069,2.262 30.894,2.079 30.836,1.963 30.828,1.946 30.82,1.921 30.82,1.871 V 0.349 c 0,-0.05 0.008,-0.075 0.016,-0.091 0.058,-0.117 0.233,-0.291 0.35,-0.349 0.033,-0.017 0.049,-0.025 0.099,-0.025 h 0.616 c 0.166,0 0.582,0.349 0.665,0.465 z m 4.291,-2.42 c -0.149,-0.108 -0.366,-0.167 -0.565,-0.167 h -0.824 c -0.199,0 -0.424,0.059 -0.573,0.167 -0.125,0.091 -0.333,0.307 -0.4,0.399 -0.099,0.133 -0.141,0.299 -0.141,0.474 v 1.588 c 0,0.175 0.042,0.341 0.141,0.474 0.067,0.092 0.275,0.308 0.4,0.4 0.149,0.108 0.374,0.166 0.573,0.166 H 36.3 c 0.2,0 0.424,-0.058 0.574,-0.166 0.125,-0.092 0.332,-0.308 0.399,-0.4 0.1,-0.141 0.133,-0.307 0.133,-0.474 V 0.832 H 35.003 V 0.333 c 0,-0.05 0.008,-0.075 0.016,-0.092 0.05,-0.091 0.2,-0.266 0.341,-0.332 0.034,-0.017 0.067,-0.025 0.108,-0.025 h 0.84 c 0.05,0 0.067,0.008 0.1,0.025 0.117,0.058 0.283,0.224 0.341,0.332 l 0.05,0.092 0.607,-0.2 c -0.108,-0.249 -0.341,-0.549 -0.549,-0.69 m -0.1,2.445 c 0,0.016 0,0.075 -0.008,0.091 -0.058,0.117 -0.241,0.275 -0.358,0.333 -0.033,0.017 -0.049,0.025 -0.099,0.025 H 35.468 C 35.443,2.337 35.394,2.329 35.369,2.312 35.202,2.221 35.077,2.104 35.019,1.979 35.011,1.971 35.003,1.938 35.003,1.888 V 1.422 h 1.754 z m 4.1,-2.57 v 2.57 c 0,0.016 0,0.075 -0.008,0.091 -0.058,0.117 -0.241,0.283 -0.358,0.341 -0.016,0.009 -0.05,0.017 -0.099,0.017 h -0.591 c -0.158,0 -0.557,-0.324 -0.64,-0.433 v -2.586 h -0.649 v 2.919 l -0.066,0.665 h 0.648 l 0.033,-0.291 c 0.167,0.15 0.416,0.333 0.649,0.333 H 40.4 c 0.199,0 0.424,-0.058 0.574,-0.166 0.124,-0.092 0.332,-0.308 0.399,-0.4 0.1,-0.141 0.133,-0.307 0.133,-0.474 v -2.586 z m 4.707,0.532 c -0.066,-0.091 -0.274,-0.316 -0.399,-0.407 -0.15,-0.108 -0.366,-0.167 -0.566,-0.167 h -0.648 c -0.233,0 -0.474,0.167 -0.641,0.317 v -1.714 h -0.648 v 4.358 l -0.058,0.665 h 0.648 l 0.033,-0.307 c 0.167,0.158 0.416,0.349 0.666,0.349 h 0.648 c 0.2,0 0.416,-0.066 0.566,-0.175 0.125,-0.091 0.333,-0.307 0.399,-0.399 0.1,-0.141 0.142,-0.307 0.142,-0.482 V 0.333 c 0,-0.175 -0.042,-0.35 -0.142,-0.483 m -0.507,2.021 c 0,0.05 -0.008,0.083 -0.017,0.092 -0.066,0.116 -0.233,0.282 -0.349,0.349 -0.025,0.008 -0.05,0.025 -0.1,0.025 h -0.615 c -0.167,0 -0.582,-0.349 -0.666,-0.466 V 0.358 c 0.084,-0.125 0.491,-0.474 0.666,-0.474 h 0.615 c 0.05,0 0.075,0.008 0.1,0.016 0.116,0.067 0.291,0.241 0.349,0.358 0.009,0.016 0.017,0.041 0.017,0.091 z m 4.108,-2.553 -0.041,0.283 c -0.167,-0.142 -0.416,-0.325 -0.649,-0.325 h -0.732 c -0.2,0 -0.416,0.059 -0.565,0.167 -0.125,0.091 -0.325,0.299 -0.391,0.391 -0.1,0.133 -0.142,0.299 -0.142,0.474 v 0.158 c 0,0.174 0.042,0.341 0.142,0.474 0.066,0.091 0.266,0.299 0.391,0.391 0.149,0.108 0.365,0.158 0.565,0.158 h 1.347 v 0.407 c 0,0.025 0,0.067 -0.025,0.108 -0.066,0.108 -0.224,0.25 -0.341,0.308 -0.033,0.017 -0.049,0.025 -0.099,0.025 h -0.782 c -0.15,0 -0.3,-0.175 -0.383,-0.283 -0.041,-0.05 -0.108,-0.15 -0.108,-0.15 l -0.607,0.183 c 0.1,0.242 0.374,0.574 0.549,0.699 0.158,0.108 0.374,0.158 0.574,0.158 h 0.765 c 0.199,0 0.424,-0.058 0.574,-0.166 0.124,-0.092 0.332,-0.3 0.399,-0.391 0.1,-0.142 0.133,-0.316 0.133,-0.483 v -1.929 l 0.066,-0.657 z M 49.09,0.898 H 47.751 C 47.701,0.898 47.676,0.89 47.652,0.882 47.535,0.815 47.369,0.657 47.311,0.541 47.302,0.524 47.294,0.507 47.294,0.457 V 0.316 c 0,-0.05 0.008,-0.066 0.017,-0.083 0.058,-0.117 0.224,-0.258 0.341,-0.324 0.024,-0.009 0.049,-0.025 0.099,-0.025 h 0.699 c 0.033,0 0.058,0.008 0.075,0.016 0.141,0.067 0.449,0.25 0.565,0.416 z m 4.092,0.998 C 53.09,2.071 52.891,2.337 52.691,2.337 h -0.449 c -0.175,0 -0.574,-0.324 -0.657,-0.449 v -2.57 h -0.648 v 2.919 l -0.059,0.665 h 0.641 L 51.56,2.611 c 0.167,0.158 0.416,0.333 0.657,0.333 h 0.458 c 0.199,0 0.415,-0.05 0.565,-0.158 0.191,-0.133 0.457,-0.466 0.557,-0.707 z m 1.397,-2.578 -0.075,0.541 v 4.449 h 0.64 v -4.35 l 0.084,-0.64 z m 4.15,0 -0.042,0.283 c -0.166,-0.142 -0.416,-0.325 -0.649,-0.325 h -0.731 c -0.2,0 -0.416,0.059 -0.566,0.167 -0.125,0.091 -0.324,0.299 -0.391,0.391 -0.1,0.133 -0.141,0.299 -0.141,0.474 v 0.158 c 0,0.174 0.041,0.341 0.141,0.474 0.067,0.091 0.266,0.299 0.391,0.391 0.15,0.108 0.366,0.158 0.566,0.158 h 1.347 v 0.407 c 0,0.025 0,0.067 -0.025,0.108 -0.067,0.108 -0.225,0.25 -0.341,0.308 -0.033,0.017 -0.05,0.025 -0.1,0.025 h -0.782 c -0.149,0 -0.299,-0.175 -0.382,-0.283 -0.042,-0.05 -0.108,-0.15 -0.108,-0.15 l -0.607,0.183 c 0.099,0.242 0.374,0.574 0.548,0.699 0.159,0.108 0.375,0.158 0.574,0.158 h 0.765 c 0.2,0 0.425,-0.058 0.574,-0.166 0.125,-0.092 0.333,-0.3 0.399,-0.391 0.1,-0.142 0.134,-0.316 0.134,-0.483 v -1.929 l 0.066,-0.657 z m -0.075,1.58 h -1.339 c -0.05,0 -0.075,-0.008 -0.1,-0.016 C 57.099,0.815 56.932,0.657 56.874,0.541 56.866,0.524 56.857,0.507 56.857,0.457 V 0.316 c 0,-0.05 0.009,-0.066 0.017,-0.083 0.058,-0.117 0.225,-0.258 0.341,-0.324 0.025,-0.009 0.05,-0.025 0.1,-0.025 h 0.698 c 0.034,0 0.059,0.008 0.075,0.016 0.142,0.067 0.449,0.25 0.566,0.416 z m 6.104,-1.58 v 2.57 c 0,0.05 -0.008,0.075 -0.017,0.091 -0.058,0.117 -0.216,0.266 -0.332,0.333 -0.025,0.017 -0.084,0.025 -0.117,0.025 h -0.374 c -0.158,0 -0.541,-0.308 -0.624,-0.416 V 1.904 -0.682 h -0.64 v 2.57 c 0,0.05 -0.008,0.075 -0.017,0.091 C 62.579,2.096 62.413,2.254 62.296,2.32 62.271,2.337 62.213,2.337 62.18,2.337 H 61.797 61.739 C 61.523,2.32 61.24,1.979 61.149,1.871 V -0.682 H 60.5 v 2.919 l -0.058,0.665 h 0.648 l 0.034,-0.299 c 0.166,0.15 0.416,0.341 0.648,0.341 h 0.499 c 0.167,0.008 0.35,-0.042 0.491,-0.158 0.091,-0.075 0.158,-0.2 0.249,-0.308 0.109,0.108 0.333,0.258 0.458,0.341 0.141,0.075 0.291,0.125 0.424,0.125 h 0.557 c 0.158,0 0.3,-0.075 0.424,-0.166 0.125,-0.092 0.333,-0.308 0.4,-0.4 0.099,-0.141 0.133,-0.307 0.133,-0.474 v -2.586 z m 4.258,0.125 C 68.866,-0.665 68.65,-0.724 68.45,-0.724 h -0.823 c -0.2,0 -0.424,0.059 -0.574,0.167 -0.125,0.091 -0.332,0.307 -0.399,0.399 -0.1,0.133 -0.141,0.299 -0.141,0.474 v 1.588 c 0,0.175 0.041,0.341 0.141,0.474 0.067,0.092 0.274,0.308 0.399,0.4 0.15,0.108 0.374,0.166 0.574,0.166 h 0.832 c 0.199,0 0.424,-0.058 0.574,-0.166 0.124,-0.092 0.332,-0.308 0.399,-0.4 0.099,-0.141 0.133,-0.307 0.133,-0.474 V 0.832 H 67.161 V 0.333 c 0,-0.05 0.009,-0.075 0.017,-0.092 0.05,-0.091 0.2,-0.266 0.341,-0.332 0.033,-0.017 0.066,-0.025 0.108,-0.025 h 0.84 c 0.05,0 0.067,0.008 0.1,0.025 0.116,0.058 0.283,0.224 0.341,0.332 l 0.05,0.092 0.607,-0.2 c -0.108,-0.249 -0.341,-0.549 -0.549,-0.69 m -0.1,2.445 c 0,0.016 0,0.075 -0.008,0.091 -0.058,0.117 -0.241,0.275 -0.358,0.333 -0.033,0.017 -0.05,0.025 -0.1,0.025 h -0.823 c -0.025,0 -0.075,-0.008 -0.1,-0.025 C 67.361,2.221 67.236,2.104 67.178,1.979 67.17,1.971 67.161,1.938 67.161,1.888 V 1.422 h 1.755 z m 4.1,-2.57 v 2.57 c 0,0.016 0,0.075 -0.008,0.091 -0.059,0.117 -0.242,0.283 -0.358,0.341 -0.017,0.009 -0.05,0.017 -0.1,0.017 h -0.59 c -0.158,0 -0.557,-0.324 -0.641,-0.433 v -2.586 h -0.648 v 2.919 l -0.067,0.665 h 0.649 l 0.033,-0.291 c 0.166,0.15 0.416,0.333 0.649,0.333 h 0.623 c 0.2,0 0.425,-0.058 0.574,-0.166 0.125,-0.092 0.333,-0.308 0.399,-0.4 0.1,-0.141 0.134,-0.307 0.134,-0.474 v -2.586 z m 2.703,2.977 V 0.391 c 0,-0.058 0.008,-0.092 0.016,-0.108 0.059,-0.117 0.216,-0.275 0.333,-0.333 0.017,-0.008 0.066,-0.025 0.116,-0.025 h 0.582 v -0.607 h -0.59 c -0.2,0 -0.416,0.058 -0.565,0.166 -0.125,0.092 -0.333,0.316 -0.4,0.408 C 75.112,0.033 75.07,0.2 75.07,0.374 v 1.921 h -0.59 v 0.607 h 0.59 v 1.406 h 0.649 V 2.902 h 1.097 V 2.295 Z"
       style="fill:#000000;fill-opacity:1;fill-rule:nonzero;stroke:none"
       transform="matrix(2.3186545,0,0,-2.3186545,85.632229,107.92271)"
       clip-path="url(#clipPath155)"
       id="path226" />
    <path
       d="m 0,0 h -4.762 c -1.304,0 -2.589,0.825 -3.819,2.451 l -0.005,0.005 c -0.243,0.335 -0.443,0.76 -0.805,1.543 l -0.177,0.385 2.942,0.782 0.383,-0.764 c 0.33,-0.579 1.089,-1.241 1.473,-1.448 0.037,-0.017 0.055,-0.017 0.094,-0.017 h 4.562 c 0.014,0 0.045,0.007 0.069,0.019 0.464,0.232 1.427,1.137 1.456,1.424 v 1.736 c 0,0.297 -0.207,0.579 -0.385,0.624 l -7.758,1.996 c -1.575,0.411 -2.292,1.975 -2.292,3.254 v 1.739 c 0,0.691 0.155,1.267 0.462,1.713 0.371,0.557 1.569,1.755 2.191,2.128 l 0.009,0.005 c 0.59,0.332 1.263,0.531 1.8,0.531 h 4.191 c 1.284,0 2.559,-0.824 3.789,-2.448 0.238,-0.298 0.466,-0.712 0.84,-1.523 L 4.432,13.758 1.467,12.905 1.05,13.741 c -0.269,0.537 -1.06,1.205 -1.439,1.422 -0.016,0.003 -0.04,0.006 -0.067,0.006 h -3.963 c -0.034,0 -0.043,-0.004 -0.096,-0.022 -0.009,-0.003 -0.017,-0.006 -0.026,-0.009 -0.383,-0.192 -1.367,-1.131 -1.432,-1.419 v -1.615 c 0,-0.282 0.188,-0.525 0.357,-0.567 L 2.116,9.483 C 3.476,9.12 4.462,7.776 4.462,6.287 V 4.348 C 4.462,3.658 4.307,3.083 4.002,2.637 3.639,2.094 2.445,0.917 1.809,0.536 L 1.8,0.53 C 1.209,0.198 0.537,0 0,0 M 15.24,0.143 H 12.189 V 15.026 H 7.313 v 2.937 H 20.116 V 15.026 H 15.24 Z M 31.649,0 h -3.82 C 27.176,0 26.456,0.274 26,0.53 l -0.009,0.006 c -0.614,0.368 -1.797,1.55 -2.166,2.103 -0.322,0.469 -0.487,1.036 -0.487,1.681 v 13.643 h 3.051 V 4.389 C 26.464,4.093 27.5,3.144 27.894,2.96 l 0.008,-0.004 c 0.039,-0.019 0.039,-0.019 0.069,-0.019 h 3.536 c 0.048,0 0.079,0.01 0.097,0.019 l 0.009,0.004 c 0.388,0.181 1.345,1.148 1.419,1.43 v 13.573 h 3.051 V 4.32 c 0,-0.69 -0.146,-1.225 -0.46,-1.683 C 35.252,2.083 34.072,0.904 33.458,0.536 L 33.449,0.53 C 32.859,0.198 32.186,0 31.649,0 m 11.533,0.143 h -3.05 v 17.82 h 8.397 c 0.738,0 1.55,-0.255 2.119,-0.666 0.434,-0.311 1.347,-1.225 1.599,-1.603 0.352,-0.544 0.544,-1.19 0.544,-1.822 v -2.567 c 0,-0.632 -0.182,-1.234 -0.542,-1.79 L 52.247,9.511 C 51.987,9.122 51.04,8.209 50.618,7.907 50.066,7.509 49.285,7.271 48.529,7.271 h -5.347 z m 0,10.065 H 48.5 c 0.282,0 0.912,0.547 1.215,0.982 0.007,0.014 0.025,0.079 0.025,0.172 v 2.481 c 0,0.085 -0.013,0.126 -0.038,0.201 -0.079,0.229 -0.826,0.938 -1.08,0.982 h -5.44 z M 69.332,0.143 h -3.267 l -1.283,3.82 h -6.903 l -1.311,-3.82 h -3.237 l 6.207,17.82 h 3.586 z M 58.864,6.872 h 4.935 l -2.468,7.235 z"
       style="fill:#000000;fill-opacity:1;fill-rule:nonzero;stroke:none"
       transform="matrix(2.3186545,0,0,-2.3186545,98.219966,90.999082)"
       clip-path="url(#clipPath156)"
       id="path227" />
    <path
       d="M 0,0 V 0 29.701 C 0.696,29.005 1.086,28.615 1.782,27.919 V 1.782 C 1.086,1.086 0.696,0.696 0,0"
       style="fill:#000000;fill-opacity:1;fill-rule:nonzero;stroke:none"
       transform="matrix(2.3186545,0,0,-2.3186545,60.75005,113.80792)"
       clip-path="url(#clipPath157)"
       id="path228" />
    <path
       class="st3"
       d="M 13.263325,66.053064 C 8.8048149,70.944541 7.3186449,77.46651 8.6561979,83.543799 l -7.133617,1.926945 c -1.932021,-8.59714 0.297235,-17.787188 6.539149,-24.60561 z"
       id="path8"
       style="fill:#29235c;stroke-width:1.4843;stroke-dasharray:none"
       sodipodi:nodetypes="ccccc" />
    <path
       class="st4"
       d="m 34.218325,52.564446 -1.932022,7.114875 C 26.193006,58.345282 19.653857,59.975774 14.749495,64.422572 L 9.5478999,59.234641 C 16.384282,52.860899 25.747155,50.6375 34.218325,52.564446 Z"
       id="path9"
       style="fill:#f18700;stroke-width:1.4843;stroke-dasharray:none"
       sodipodi:nodetypes="ccccc" />
    <path
       class="st5"
       d="m 47.742473,59.975774 c 3.269574,3.260985 5.498829,7.114876 6.836384,11.116993 l -7.133618,1.926946 c -0.891702,-2.964532 -2.526488,-5.63261 -4.904362,-7.856009 -2.377871,-2.371625 -5.052978,-4.002117 -8.025318,-4.891477 v 0 l 1.932021,-7.114875 c 4.161277,1.185812 8.025319,3.557438 11.294893,6.818422 z"
       id="path10"
       style="fill:#008b92;stroke-width:1.4843;stroke-dasharray:none"
       sodipodi:nodetypes="scccsccs" />
    <path
       class="st6"
       d="m 55.173324,73.316166 c 1.932021,8.448915 -0.297234,17.787188 -6.539149,24.605611 l -5.201596,-5.187929 c 4.458511,-4.891479 5.944682,-11.413447 4.60713,-17.490737 z"
       id="path11"
       style="fill:#ce1625;stroke-width:1.4843;stroke-dasharray:none"
       sodipodi:nodetypes="ccccc" />
    <path
       class="st7"
       d="m 46.999389,99.552269 c -6.836383,6.373741 -16.199256,8.597141 -24.670426,6.670201 l 1.932021,-7.11488 c 6.093298,1.18581 12.632447,-0.296453 17.53681,-4.743251 z"
       id="path12"
       style="fill:#0075bf;stroke-width:1.4843;stroke-dasharray:none"
       sodipodi:nodetypes="ccccc" />
    <path
       class="st8"
       d="m 22.031729,98.514685 v 0 l -1.932021,7.114875 C 15.938431,104.29552 12.074389,102.07212 8.8048149,98.811137 5.5352409,95.550152 3.3059859,91.696262 1.9684319,87.694143 l 7.133617,-1.926944 c 0.8917015,2.96453 2.5264891,5.63261 4.9043611,7.856007 2.377872,2.223398 5.052979,3.853892 8.025319,4.891479 z"
       id="path13"
       style="fill:#ffcc00;stroke-width:1.4843;stroke-dasharray:none"
       sodipodi:nodetypes="sccsccss" />
    <path
       class="st3"
       d="m 20.099708,72.72326 c -1.932021,2.371625 -2.675106,5.336156 -2.229255,8.300688 l -7.282234,1.926945 C 9.5478999,77.614736 10.885453,71.8339 14.749495,67.387103 Z"
       id="path14"
       style="fill:#29235c;stroke-width:1.4843;stroke-dasharray:none"
       sodipodi:nodetypes="ccccc" />
    <path
       class="st8"
       d="m 24.558219,89.17641 -1.932022,7.263102 C 20.099708,95.550152 17.573219,94.216113 15.49258,92.14094 13.411942,90.065768 12.074389,87.694143 11.182687,85.174291 l 7.282234,-1.926945 c 0.445851,1.33404 1.337553,2.519853 2.377872,3.705665 1.040319,0.889358 2.377872,1.778718 3.715426,2.223399 z"
       id="path15"
       style="fill:#ffcc00;stroke-width:1.4843;stroke-dasharray:none"
       sodipodi:nodetypes="ccscccc" />
    <path
       class="st7"
       d="m 40.311622,92.882074 c -4.309893,3.853891 -10.105957,5.336156 -15.45617,4.150343 l 1.932022,-7.263102 v 0 c 2.823723,0.444682 5.796064,-0.296452 8.173936,-2.223399 z"
       id="path16"
       style="fill:#0075bf;stroke-width:1.4843;stroke-dasharray:none"
       sodipodi:nodetypes="cccscc" />
    <path
       class="st6"
       d="m 45.95907,75.687791 c 1.040319,5.336157 -0.297235,11.116994 -4.161276,15.563789 L 36.44758,85.915425 c 1.932021,-2.371626 2.675106,-5.336157 2.229255,-8.300689 z"
       id="path17"
       style="fill:#ce1625;stroke-width:1.4843;stroke-dasharray:none"
       sodipodi:nodetypes="ccccc" />
    <path
       class="st5"
       d="m 41.054708,66.64597 c 2.080638,2.075172 3.418191,4.446797 4.309893,6.966649 l -7.282234,1.926946 C 37.636516,74.205525 36.744814,73.019713 35.704495,71.8339 34.664176,70.796314 33.326623,69.906955 31.989069,69.462275 l 1.932022,-7.263102 c 2.675106,0.889359 5.052978,2.371625 7.133617,4.446797 z"
       id="path18"
       style="fill:#008b92;stroke-width:1.4843;stroke-dasharray:none"
       sodipodi:nodetypes="scccccs" />
    <path
       class="st4"
       d="m 31.840452,61.754493 -1.932021,7.263102 c -2.823723,-0.444679 -5.944681,0.296453 -8.322553,2.223399 l -5.350213,-5.336157 c 4.458511,-3.853891 10.254575,-5.336156 15.604787,-4.150344 z"
       id="path19"
       style="fill:#f18700;stroke-width:1.4843;stroke-dasharray:none"
       sodipodi:nodetypes="ccccc" />
  </g>
</svg>
